<?xml version="1.0" standalone="no"?>
<!DOCTYPE svg PUBLIC "-//W3C//DTD SVG 20010904//EN"
 "http://www.w3.org/TR/2001/REC-SVG-20010904/DTD/svg10.dtd">
<svg version="1.0" xmlns="http://www.w3.org/2000/svg"
 width="700.000000pt" height="567.000000pt" viewBox="0 0 700.000000 567.000000"
 preserveAspectRatio="xMidYMid meet">

<g transform="translate(0.000000,567.000000) scale(0.100000,-0.100000)"
fill="#000000" stroke="none">
<path d="M2700 5220 l0 -230 230 0 230 0 0 230 0 230 -230 0 -230 0 0 -230z"/>
<path d="M3620 5220 l0 -230 243 -2 c133 -1 256 -2 274 -3 17 0 29 -4 26 -9
-3 -5 6 -7 20 -4 16 3 24 1 20 -5 -4 -6 2 -8 15 -5 12 4 20 2 16 -3 -3 -5 1
-9 10 -9 52 0 206 -112 221 -161 4 -11 11 -16 18 -13 7 4 9 4 5 -1 -4 -4 1
-24 12 -45 31 -61 40 -151 40 -412 l0 -248 293 -2 c160 -1 300 -2 309 -2 9 0
14 -4 11 -9 -4 -6 5 -8 20 -5 16 3 24 1 20 -5 -4 -6 2 -8 15 -5 14 4 20 2 15
-5 -4 -6 2 -8 16 -4 13 3 21 3 18 0 -3 -3 30 -23 73 -44 107 -54 215 -162 269
-269 21 -43 41 -76 44 -73 3 3 3 -5 0 -18 -4 -14 -2 -20 4 -16 7 5 9 -1 5 -15
-3 -11 -1 -19 4 -16 5 4 10 -4 10 -15 1 -12 6 -57 12 -99 6 -45 6 -108 2 -150
-5 -40 -6 -77 -3 -82 4 -5 0 -6 -7 -1 -10 6 -12 1 -8 -18 3 -16 1 -24 -5 -20
-6 4 -8 -2 -5 -15 4 -12 2 -20 -3 -16 -5 3 -9 -1 -9 -9 0 -8 -18 -51 -40 -95
-55 -110 -162 -217 -272 -272 -44 -22 -87 -40 -95 -40 -8 0 -12 -4 -9 -9 4 -5
-4 -7 -16 -3 -11 3 -19 1 -16 -4 4 -5 -4 -10 -15 -10 -12 -1 -56 -8 -97 -15
-57 -9 -398 -13 -1453 -16 l-1378 -3 -67 30 c-161 73 -210 108 -296 215 -43
54 -70 100 -92 160 -10 27 -11 33 -13 50 -1 13 -33 15 -226 15 -173 0 -225 -3
-225 -12 1 -25 40 -164 59 -208 11 -25 29 -70 41 -100 12 -30 40 -81 61 -114
22 -32 39 -62 39 -66 0 -5 11 -17 25 -28 13 -11 22 -22 19 -24 -7 -8 126 -139
193 -190 68 -53 232 -137 318 -164 58 -18 118 -19 1580 -19 l1520 0 97 27
c183 52 377 160 507 282 121 115 259 340 305 500 45 155 61 378 36 518 -40
229 -152 455 -304 617 -185 196 -524 351 -768 351 -47 0 -48 1 -48 31 0 16 -4
28 -9 25 -5 -4 -7 3 -4 14 20 76 -81 367 -172 495 -57 79 -186 203 -250 238
-69 39 -167 77 -178 70 -6 -3 -7 -1 -4 4 4 6 -10 13 -36 17 -23 3 -64 10 -92
15 -27 6 -184 10 -347 10 l-298 1 0 -230z m2231 -1077 c13 -16 12 -17 -3 -4
-10 7 -18 15 -18 17 0 8 8 3 21 -13z m-81 -1607 c0 -2 -8 -10 -17 -17 -16 -13
-17 -12 -4 4 13 16 21 21 21 13z"/>
<path d="M1780 4760 l0 -230 230 0 230 0 0 230 0 230 -230 0 -230 0 0 -230z"/>
<path d="M2700 4300 l0 -230 230 0 230 0 0 230 0 230 -230 0 -230 0 0 -230z"/>
<path d="M1780 3840 l0 -230 230 0 230 0 0 230 0 230 -230 0 -230 0 0 -230z"/>
<path d="M2700 3380 l0 -230 230 0 230 0 0 230 0 230 -230 0 -230 0 0 -230z"/>
<path d="M4080 3380 l0 -230 230 0 230 0 0 230 0 230 -230 0 -230 0 0 -230z"/>
<path d="M352 2068 c-9 -9 -12 -188 -12 -742 l0 -731 39 -37 38 -38 682 0
c451 0 689 4 702 10 19 10 19 29 19 739 0 635 -2 730 -15 741 -8 7 -15 18 -15
25 0 6 -8 19 -18 28 -17 16 -81 17 -713 17 -527 0 -698 -3 -707 -12z m1358
-763 l0 -665 -635 0 -635 0 0 649 c0 357 3 656 6 665 6 14 71 16 635 16 l629
0 0 -665z"/>
<path d="M520 1320 l0 -600 25 0 c18 0 25 -5 25 -20 0 -19 7 -20 165 -20 l165
0 0 224 c0 123 3 231 6 240 5 14 30 16 174 16 144 0 169 -2 174 -16 3 -9 6
-108 6 -220 0 -197 1 -204 20 -204 13 0 20 -7 20 -20 0 -19 7 -20 170 -20
l170 0 0 590 c0 506 -2 590 -14 590 -9 0 -16 12 -18 28 l-3 27 -172 3 -173 2
0 -210 0 -210 -180 0 -180 0 0 180 c0 153 -2 180 -15 180 -10 0 -15 10 -15 30
l0 30 -175 0 -175 0 0 -600z"/>
<path d="M1860 1805 l0 -115 155 0 155 0 0 115 0 115 -155 0 -155 0 0 -115z"/>
<path d="M2370 1320 l0 -600 150 0 150 0 0 58 0 58 53 -51 c66 -64 139 -90
232 -82 199 15 317 185 318 457 1 215 -62 344 -200 412 -58 28 -77 33 -143 32
-81 0 -143 -21 -207 -70 l-33 -25 0 205 0 206 -160 0 -160 0 0 -600z m542 1
c33 -37 48 -88 48 -164 0 -163 -77 -246 -184 -198 -63 28 -81 71 -81 196 0 86
3 105 23 136 46 75 141 89 194 30z"/>
<path d="M4150 1805 l0 -115 155 0 155 0 0 115 0 115 -155 0 -155 0 0 -115z"/>
<path d="M5210 1715 l0 -206 -33 25 c-85 65 -188 87 -286 62 -148 -38 -236
-152 -261 -336 -32 -234 49 -452 194 -528 44 -22 64 -26 141 -27 79 0 96 3
141 27 29 15 68 46 88 69 l36 43 0 -62 0 -62 150 0 150 0 -2 598 -3 597 -157
3 -158 3 0 -206z m-97 -364 c38 -15 74 -59 87 -107 17 -61 8 -183 -16 -224
-56 -96 -172 -100 -221 -7 -21 40 -29 177 -14 233 24 91 90 133 164 105z"/>
<path d="M3867 1595 c-47 -16 -81 -47 -110 -99 l-22 -39 -5 64 -5 64 -145 0
-145 0 -3 -432 -2 -433 160 0 160 0 0 203 c0 277 21 370 92 412 29 17 67 17
123 0 18 -5 26 7 68 107 54 129 54 126 -37 153 -60 18 -80 18 -129 0z"/>
<path d="M6053 1600 c-144 -26 -264 -113 -323 -234 -88 -179 -49 -421 87 -547
162 -149 469 -159 651 -21 51 39 110 129 132 200 27 88 27 227 0 315 -39 126
-141 228 -270 268 -73 23 -204 32 -277 19z m176 -248 c65 -49 91 -142 73 -264
-16 -106 -66 -161 -144 -161 -59 0 -104 26 -130 76 -20 36 -23 57 -23 147 0
94 3 110 25 149 43 76 136 101 199 53z"/>
<path d="M1860 1155 l0 -435 155 0 155 0 0 435 0 435 -155 0 -155 0 0 -435z"/>
<path d="M4150 1155 l0 -435 155 0 155 0 0 435 0 435 -155 0 -155 0 0 -435z"/>
</g>
</svg>
